<?xml version="1.0"?>
<svg xmlns="http://www.w3.org/2000/svg" height="512px" viewBox="0 0 512 512.0047" width="512px" class=""><g><path d="m503.46875 25.605469h-31.765625l5.558594-13.894531c1.75-4.378907-.378907-9.347657-4.753907-11.097657-4.378906-1.75-9.347656.378907-11.097656 4.753907l-8.09375 20.238281h-36.230468l-8.09375-20.238281c-1.132813-2.832032-3.6875-4.84375-6.707032-5.2773442-3.019531-.4335938-6.039062.7734372-7.925781 3.1718752-1.882813 2.394531-2.347656 5.617187-1.214844 8.449219l5.558594 13.894531h-57.367187c0-4.714844-3.820313-8.535157-8.535157-8.535157-4.710937 0-8.53125 3.820313-8.53125 8.535157h-136.535156c0-4.714844-3.820313-8.535157-8.53125-8.535157-4.714844 0-8.535156 3.820313-8.535156 8.535157h-57.367188l5.558594-13.894531c1.753906-4.378907-.375-9.347657-4.753906-11.097657-4.375-1.75-9.34375.378907-11.09375 4.753907l-8.09375 20.238281h-36.230469l-8.09375-20.238281c-1.75-4.375-6.71875-6.503907-11.097656-4.753907-4.375 1.75-6.503906 6.71875-4.753906 11.097657l5.558593 13.894531h-31.765625c-4.710937 0-8.53124975 3.820312-8.53124975 8.53125 0 4.714843 3.82031275 8.535156 8.53124975 8.535156h38.59375l21.140625 52.851563v399.414062c0 4.714844 3.820313 8.535156 8.53125 8.535156 4.714844 0 8.535157-3.820312 8.535157-8.535156v-399.414062l21.140624-52.851563h64.191407v21.101563c-24.320313 12.054687-41.40625 50.042968-41.40625 94.097656 0 33.488281 9.886719 63.449218 25.300781 81.214844-9.902344 3.164062-18.84375 8.777343-25.992188 16.320312-15.363281 15.828125-21.476562 37.148438-15.226562 53.050781.84375 2.148438 2.523438 3.863281 4.652344 4.753907 4.207031 1.71875 8.710937 2.582031 13.253906 2.546874 14.859375-.710937 28.832031-7.289062 38.847656-18.292968v-.003906c3.460938-3.582032 6.511719-7.535157 9.105469-11.785157 2.589844 4.25 5.640625 8.203125 9.097656 11.78125v.007813c10.019531 11.003906 23.996094 17.582031 38.859375 18.289062 4.542969.039063 9.046875-.828125 13.25-2.546875 2.128906-.886719 3.808594-2.601562 4.652344-4.753906 6.25-15.902344.136719-37.222656-15.222656-53.046875-7.152344-7.542969-16.09375-13.15625-25.996094-16.320312 15.414062-17.765626 25.304688-47.726563 25.304688-81.214844 0-44.066406-17.078126-82.121094-41.410157-94.164063v-21.035156h136.53125v21.101563c-24.320312 12.054687-41.410156 50.042968-41.410156 94.097656 0 33.488281 9.890625 63.449218 25.304687 81.214844-9.902343 3.164062-18.84375 8.777343-25.996093 16.320312-15.359375 15.828125-21.472657 37.148438-15.222657 53.050781.84375 2.148438 2.523438 3.863281 4.652344 4.753907 4.203125 1.71875 8.707032 2.582031 13.25 2.546874 14.863282-.710937 28.835938-7.289062 38.851563-18.292968v-.003906c3.457031-3.582032 6.511719-7.535157 9.101562-11.785157 2.59375 4.25 5.644531 8.203125 9.101563 11.78125v.007813c10.015625 11.003906 23.992187 17.582031 38.855468 18.289062 4.542969.039063 9.046876-.828125 13.253907-2.546875 2.128906-.886719 3.808593-2.601562 4.652343-4.753906 6.25-15.902344.132813-37.222656-15.226562-53.046875-7.152344-7.542969-16.09375-13.152344-25.992188-16.320312 15.414063-17.765626 25.300782-47.726563 25.300782-81.214844 0-44.054688-17.085938-82.042969-41.40625-94.097656v-21.101563h64.191406l21.136719 52.851563v399.414062c0 4.714844 3.820312 8.535156 8.535156 8.535156 4.710937 0 8.53125-3.820312 8.53125-8.535156v-399.414062l21.140625-52.851563h38.59375c4.714844 0 8.535156-3.820313 8.535156-8.535156 0-4.710938-3.820312-8.53125-8.535156-8.53125zm-426.667969 45.289062-11.289062-28.222656h22.578125zm102.414063 166.230469c-15.984375-7.066406-31.6875-35.683594-32.777344-74.949219 20.375 11.324219 45.152344 11.324219 65.527344 0-1.085938 39.246094-16.773438 67.867188-32.75 74.953125zm-21.363282 48.449219c-7.375 8.59375-18.277343 13.335937-29.59375 12.871093-.644531-11.734374 3.957032-23.152343 12.5625-31.15625 7.359376-8.613281 18.273438-13.363281 29.59375-12.875.644532 11.734376-3.957031 23.152344-12.5625 31.160157zm72.292969 12.871093c-11.3125.472657-22.222656-4.273437-29.59375-12.871093-8.605469-8.007813-13.207031-19.425781-12.558593-31.160157 11.316406-.480468 22.230468 4.265626 29.59375 12.875 8.605468 8.003907 13.207031 19.421876 12.558593 31.15625zm-18.902343-156.519531c-18.523438 15.570313-45.558594 15.570313-64.078126 0 3.515626-33.25 17.6875-56.964843 32.054688-63.3125 14.355469 6.375 28.507812 30.089844 32.023438 63.3125zm121.570312 95.203125c-15.984375-7.066406-31.683594-35.683594-32.773438-74.953125 20.375 11.328125 45.152344 11.328125 65.527344 0-1.089844 39.246094-16.777344 67.867188-32.753906 74.953125zm-21.359375 48.445313c-7.375 8.59375-18.28125 13.339843-29.59375 12.871093-.648437-11.734374 3.957031-23.152343 12.5625-31.15625 7.359375-8.613281 18.273437-13.363281 29.589844-12.875.648437 11.734376-3.953125 23.152344-12.558594 31.160157zm72.292969 12.871093c-11.316406.476563-22.226563-4.269531-29.59375-12.871093-8.605469-8.007813-13.207032-19.425781-12.5625-31.160157 11.320312-.480468 22.234375 4.265626 29.597656 12.875 8.605469 8.003907 13.207031 19.421876 12.558594 31.15625zm-18.90625-156.519531c-18.519532 15.570313-45.554688 15.570313-64.078125 0 3.519531-33.25 17.691406-56.964843 32.058593-63.3125 14.351563 6.375 28.507813 30.089844 32.023438 63.3125zm70.363281-71.03125-11.289063-28.222656h22.578126zm0 0" data-original="#000000" class="active-path" data-old_color="#9C4040" fill="#503721"/><path d="m179.203125 107.21875-2.160156-2.222656c-3.28125-3.382813-8.683594-3.464844-12.066407-.183594-3.382812 3.28125-3.464843 8.683594-.183593 12.066406l2.515625 2.59375-2.515625 2.589844c-3.28125 3.382812-3.199219 8.785156.183593 12.066406 3.382813 3.28125 8.785157 3.199219 12.066407-.183594l2.160156-2.222656 2.15625 2.222656c3.28125 3.382813 8.683594 3.464844 12.066406.183594 3.382813-3.28125 3.464844-8.683594.183594-12.066406l-2.515625-2.589844 2.515625-2.59375c2.125-2.1875 2.917969-5.34375 2.085937-8.273437-.835937-2.933594-3.171874-5.199219-6.125-5.941407-2.957031-.746093-6.085937.144532-8.210937 2.332032zm0 0" data-original="#000000" class="active-path" data-old_color="#9C4040" fill="#503721"/><path d="m332.800781 107.21875-2.15625-2.222656c-3.28125-3.382813-8.683593-3.464844-12.066406-.183594s-3.464844 8.683594-.183594 12.066406l2.515625 2.59375-2.515625 2.589844c-3.28125 3.382812-3.199219 8.785156.183594 12.066406s8.785156 3.199219 12.066406-.183594l2.15625-2.222656 2.160157 2.222656c3.28125 3.382813 8.683593 3.464844 12.066406.183594 3.382812-3.28125 3.464844-8.683594.183594-12.066406l-2.515626-2.589844 2.515626-2.59375c2.121093-2.1875 2.917968-5.34375 2.082031-8.273437-.832031-2.933594-3.167969-5.199219-6.125-5.941407-2.957031-.746093-6.085938.144532-8.207031 2.332032zm0 0" data-original="#000000" class="active-path" data-old_color="#9C4040" fill="#503721"/><path d="m163.609375 462.28125c-6.421875 6.378906-10.027344 15.066406-10.007813 24.125.011719 9.421875 7.644532 17.054688 17.066407 17.066406h27.972656c3.027344 5.261719 8.625 8.511719 14.695313 8.53125h34.132812c3.003906-.015625 5.953125-.835937 8.535156-2.371094 2.582032 1.535157 5.527344 2.355469 8.53125 2.371094h34.132813c6.070312-.019531 11.671875-3.269531 14.695312-8.53125h27.972657c9.421874-.011718 17.058593-7.644531 17.066406-17.066406.019531-9.058594-3.582032-17.746094-10.007813-24.125-9.410156-8.992188-23.050781-11.980469-35.355469-7.753906 1.582032-4.007813 2.738282-8.167969 3.441407-12.417969 1.332031-12.609375.050781-25.359375-3.765625-37.453125l-1.449219-6.03125c-.632813-2.425781-.121094-5.007812 1.390625-7.007812 3.796875-2.78125 7.765625-5.324219 11.878906-7.613282.847656-.027344 1.6875-.179687 2.488282-.453125 4.4375-1.515625 6.824218-6.328125 5.339843-10.78125-2.167969-7.894531-8.042969-14.238281-15.75-17.011719-8.714843-2.300781-17.964843-1.460937-26.128906 2.371094-1.097656-5.378906-2.949219-10.582031-5.5-15.445312-3.859375-7.816406-10.429687-13.964844-18.492187-17.292969-12.746094-4.550781-26.832032-3.441406-38.710938 3.050781-7.203125 3.773438-12.234375 10.6875-13.609375 18.699219-.519531 4.097656-.445313 8.25.21875 12.324219.171875.886718.398437 1.761718.679687 2.617187l.152344.503907c.191406 3.75 2.8125 6.9375 6.453125 7.847656 3.644531.914062 7.457031-.664063 9.390625-3.882813 3.121094-1.589843 6.753906-1.828125 10.050782-.660156 5.332031 2.316406 6.96875 10.109375 7.398437 16.253906.429687 4.855469.402344 9.738281-.085937 14.585938-9.445313-10.523438-22.679688-16.867188-36.800782-17.644531l-.042968-.003907c-3.425782-.292969-6.695313 1.503907-8.289063 4.550781-1.59375 3.050782-1.199219 6.757813 1 9.40625.566406 1.414063 1.421875 4.136719 1.742187 5.136719.324219 1.03125.582032 1.816407.59375 1.835938 1.082032 3.066406 1.207032 6.386719.359376 9.527343-.679688 2.230469-1.496094 4.417969-2.449219 6.550782-1.800781 3.914062-3.132813 8.027344-3.960938 12.257812-1.472656 9.222656-.820312 18.65625 1.90625 27.589844-13.027343-6.09375-28.460937-3.574219-38.878906 6.34375zm87.859375-11.648438c2.1875-1.128906 4.4375-2.152343 6.683594-3.175781 5.609375-2.304687 10.917968-5.277343 15.820312-8.847656.820313 8.363281-.617187 16.796875-4.15625 24.417969-5.332031 1.988281-10.082031 5.277344-13.8125 9.574218-3.042968-3.5-6.761718-6.339843-10.9375-8.355468-.5625-8.667969 2.820313-11.777344 6.402344-13.613282zm-38.132812 44.304688c-.015626-9.425781 7.613281-17.082031 17.039062-17.101562 9.425781-.015626 17.082031 7.613281 17.101562 17.039062l-.007812.0625zm51.199218 0c-.023437-5.660156 2.773438-10.964844 7.460938-14.140625s10.648437-3.808594 15.898437-1.691406c.117188.054687.242188.070312.363281.117187 6.292969 2.675782 10.390626 8.835938 10.417969 15.675782l-.007812.039062zm71.792969-20.589844c3.210937 3.1875 5.015625 7.53125 5.007813 12.058594h-26.8125c-.875-3.441406-2.285157-6.726562-4.179688-9.730469.550781-.832031 1.179688-1.613281 1.871094-2.332031 6.742187-6.457031 17.371094-6.453125 24.113281.003906zm-118.917969-43.152344c.640625-2.941406 1.605469-5.796874 2.878906-8.523437 1.214844-2.753906 2.257813-5.585937 3.121094-8.46875 1.347656-4.761719 1.578125-9.773437.675782-14.640625 6.675781 1.769531 11.753906 7.191406 13.082031 13.96875.289062 3.558594 2.757812 6.5625 6.191406 7.53125 4.710937 1.171875 9.695313 0 13.394531-3.140625 7.285156-5.941406 10.160156-18.050781 8.789063-36.988281-2.042969-28.976563-20.824219-32.441406-26.53125-32.8125-2.589844-.148438-5.1875.023437-7.738281.511718.933593-2.371093 2.730468-4.300781 5.03125-5.394531 7.398437-3.882812 16.054687-4.585937 23.984374-1.945312 4.230469 1.855469 7.640626 5.183593 9.605469 9.363281 3.226563 6.640625 5.042969 13.871094 5.339844 21.242188.246094 3.007812 2.0625 5.664062 4.777344 6.984374 2.714843 1.316407 5.925781 1.105469 8.441406-.558593 4.621094-3.050781 16.25-8.648438 22.640625-6.410157l.082031.027344c-3.929687 2.449219-7.667969 5.191406-11.1875 8.203125-5.234375 6.140625-7.226562 14.40625-5.363281 22.253907.484375 2.109374 1.003906 4.21875 1.519531 6.320312 3.1875 9.886719 4.375 20.304688 3.5 30.652344-1.070312 6.316406-3.460937 12.332031-7.023437 17.65625-1.117188 1.609375-2.320313 3.160156-3.59375 4.648437-.105469-.023437-.199219-.070312-.304688-.09375 3.839844-16.101562 2.746094-32.984375-3.136718-48.453125-1.457032-3.558594-5.113282-5.707031-8.929688-5.242187-3.816406.460937-6.851562 3.421875-7.414062 7.226562-1.289063 8.75-7.117188 11.785157-18.160157 16.824219-2.496093 1.136719-5.007812 2.289062-7.410156 3.527344-9.675781 4.820312-15.730469 14.761718-15.574219 25.574218-1.601562.0625-3.199218.238282-4.777344.527344-5.308593-9.179687-7.390624-19.871094-5.910156-30.371094zm-15.730468 45.457032c-1.902344 3.011718-3.320313 6.300781-4.199219 9.753906h-26.8125c-.007813-4.527344 1.796875-8.871094 5.007812-12.058594 6.769531-6.527344 17.5-6.484375 24.214844.09375.664063.679688 1.265625 1.417969 1.789063 2.210938zm0 0" data-original="#000000" class="active-path" data-old_color="#9C4040" fill="#503721"/></g> </svg>
